:SAMPLES-PER-SECOND 30
:FULLY-SPECIFIED
:DEGREES
210
root  3.52673 35.3636 -1.14461 20.6327 -53.6296 -23.8263
RightUpLeg  -30.0128 -13.7265 20.6771
RightLeg  52.2921 1.31543 1.4373
RightFoot  -13.7375 -0.0738713 0.721063
RightToes  -1.28057e-009 0 -3.6325e-017
Spine  32.6017 0.537787 -8.06083
Spine1  0.384379 -6.80322 25.1384
HEad  -33.0912 -9.4211 12.1851
LeftShoulder1  1.37679 -6.98845 -5.33847
LeftArm  55.1269 -36.7977 -93.4413
LeftForeArm  50.4514 -33.1096 -4.52697
LeftHand  1.31865 7.85703 55.3136
RightShoulder  1.18926 1.77984 15.869
RightArm  -23.4763 5.24896 55.1955
RightForeArm  26.6091 38.8976 7.32228
RightHand  -3.50867 1.78027 -53.1183
LeftUpLeg  -36.5241 -21.6113 15.3596
LeftLeg  62.7676 8.10061 17.23
LeftFoot  -17.4849 -0.413945 -9.7439
LeftToes  -7.27922e-012 9.28972e-011 -9.04533e-012
211
root  3.87467 35.0971 -0.410911 8.6308 -56.8449 -12.2085
RightUpLeg  -29.2567 -6.14712 11.2593
RightLeg  57.3112 -1.48724 -2.95426
RightFoot  -16.7607 0.053685 3.38191
RightToes  -1.28057e-009 0 -3.6325e-017
Spine  33.0484 -2.11353 -2.78495
Spine1  1.87988 -5.54686 11.8627
HEad  -33.4204 -14.8139 10.0792
LeftShoulder1  2.14626 -7.3478 -12.7892
LeftArm  35.8322 -30.7275 -72.9686
LeftForeArm  45.033 -32.3252 -4.61733
LeftHand  1.05184 7.44028 53.186
RightShoulder  1.36685 2.74483 15.1377
RightArm  -7.96697 8.98537 61.8228
RightForeArm  28.9237 35.4908 6.25395
RightHand  -3.4615 1.80375 -52.3507
LeftUpLeg  -31.8203 -15.2131 4.53149
LeftLeg  60.801 6.98657 13.8864
LeftFoot  -20.7135 -0.379934 -6.24336
LeftToes  -7.27922e-012 9.28972e-011 -9.04533e-012
212
root  4.10891 34.8158 0.435729 -8.95863 -61.8897 6.57657
RightUpLeg  -30.0479 5.97016 -0.273563
RightLeg  62.915 -2.75085 -6.37715
RightFoot  -19.3401 0.37718 7.31986
RightToes  -1.28057e-009 0 -3.6325e-017
Spine  30.9259 -3.29477 1.23398
Spine1  4.00115 -2.09206 -4.35074
HEad  -31.3412 -20.8095 8.2852
LeftShoulder1  2.14458 -7.03966 -13.3547
LeftArm  17.4116 -26.5457 -60.6194
LeftForeArm  40.3712 -32.2268 -4.82931
LeftHand  0.787164 6.9405 52.4004
RightShoulder  1.18085 2.54495 12.4608
RightArm  3.62472 13.6532 70.2158
RightForeArm  37.522 39.5344 6.88046
RightHand  -3.05797 1.06754 -51.6067
LeftUpLeg  -27.5752 -2.61245 -7.68247
LeftLeg  57.228 5.80984 10.2381
LeftFoot  -24.1016 -0.112326 -2.26194
LeftToes  -7.27922e-012 9.28972e-011 -9.04533e-012
213
root  4.29796 34.5628 1.19007 -32.0325 -66.4172 31.0795
RightUpLeg  -32.7174 19.0643 -10.813
RightLeg  67.5587 -3.023 -8.70256
RightFoot  -20.0212 0.615809 9.92638
RightToes  -1.28057e-009 0 -3.6325e-017
Spine  29.5085 -2.69613 4.38134
Spine1  4.94381 3.10503 -19.791
HEad  -28.3319 -25.0358 6.4945
LeftShoulder1  1.5264 -5.5896 -9.31822
LeftArm  -1.2496 -25.8744 -55.2506
LeftForeArm  39.5499 -33.5589 -5.17686
LeftHand  1.12115 7.52916 54.1618
RightShoulder  0.754011 1.43958 7.69042
RightArm  10.1845 19.4148 78.3975
RightForeArm  50.083 49.6907 9.51866
RightHand  -2.65888 0.485528 -49.6667
LeftUpLeg  -25.5635 13.4051 -17.4448
LeftLeg  53.8667 3.23847 5.2806
LeftFoot  -25.9058 0.0492218 -0.801741
LeftToes  -7.27922e-012 9.28972e-011 -9.04533e-012
214
root  4.53878 34.3752 1.63501 -49.2624 -67.5071 49.0771
RightUpLeg  -35.6921 26.3949 -17.0682
RightLeg  70.1163 -3.12042 -10.3222
RightFoot  -19.393 0.591481 10.2292
RightToes  -1.28057e-009 0 -3.6325e-017
Spine  30.3896 -2.52202 6.62279
Spine1  3.46799 5.94113 -29.1442
HEad  -25.8851 -25.9097 4.59062
LeftShoulder1  0.774665 -2.5004 -5.03031
LeftArm  -19.9475 -28.286 -53.2784
LeftForeArm  43.4813 -39.9839 -6.67465
LeftHand  1.50501 8.19241 55.6765
RightShoulder  0.39735 0.417095 1.98583
RightArm  12.7592 26.039 82.4922
RightForeArm  63.1179 63.1548 16.2689
RightHand  -2.50607 0.294436 -48.525
LeftUpLeg  -26.4089 23.3438 -22.5551
LeftLeg  53.6082 0.708891 1.55881
LeftFoot  -24.8301 -0.0979458 -2.13018
LeftToes  -7.27922e-012 9.28972e-011 -9.04533e-012
215
root  4.82763 34.1521 1.64742 -49.7153 -67.2075 49.6403
RightUpLeg  -36.8454 25.379 -17.5673
RightLeg  70.9241 -3.04186 -10.5984
RightFoot  -19.691 0.502337 8.73715
RightToes  -1.28057e-009 0 -3.6325e-017
Spine  31.9834 -3.32226 7.06632
Spine1  1.19218 4.89394 -29.75
HEad  -24.7498 -24.0531 3.41916
LeftShoulder1  0.31256 0.414861 -2.005
LeftArm  -33.6203 -32.4295 -52.6737
LeftForeArm  49.1287 -52.4608 -10.8417
LeftHand  1.23945 7.72773 54.854
RightShoulder  0.19623 -0.325886 -2.62351
RightArm  9.08659 32.2476 79.661
RightForeArm  84.4917 76.4271 36.9891
RightHand  -1.93408 -0.989956 -48.4591
LeftUpLeg  -28.6476 21.9612 -22.9949
LeftLeg  56.2726 0.903066 2.07491
LeftFoot  -23.0269 -0.277672 -4.04426
LeftToes  -7.27922e-012 9.28972e-011 -9.04533e-012
216
root  5.07565 33.7859 1.28266 -39.2165 -67.5493 38.5755
RightUpLeg  -36.4352 19.3133 -13.435
RightLeg  70.7907 -2.33862 -8.32838
RightFoot  -21.9136 0.430937 6.29799
RightToes  -1.28057e-009 0 -3.6325e-017
Spine  34.1283 -3.40356 5.41088
Spine1  -1.4092 2.51378 -23.0998
HEad  -24.2811 -21.2134 3.63638
LeftShoulder1  0.206856 0.676323 1.01373
LeftArm  -40.6207 -37.856 -51.6673
LeftForeArm  58.5213 -66.7888 -20.4272
LeftHand  1.23396 7.7925 53.4815
RightShoulder  0.0872564 -1.46638 -4.77455
RightArm  -2.86624 35.4938 70.5429
RightForeArm  147.653 81.4986 105.984
RightHand  -1.2685 -2.47266 -48.1738
LeftUpLeg  -30.6741 14.0077 -19.5929
LeftLeg  59.9331 3.04667 6.3335
LeftFoot  -23.6391 -0.418869 -5.18206
LeftToes  -7.27922e-012 9.28972e-011 -9.04533e-012
